<svg width="375" height="812" viewBox="0 0 375 812" fill="none" xmlns="http://www.w3.org/2000/svg">
<rect width="375" height="812" fill="url(#paint0_linear_30_88)"/>
<path d="M104.332 377.473V305.018H120.706V377.473H104.332ZM81.2836 318.239V303.977H143.754V318.239H81.2836ZM97.3444 457.551V443.185H115.595C120.045 443.185 123.939 442.318 127.276 440.582C130.613 438.778 133.186 436.176 134.993 432.775C136.801 429.374 137.705 425.349 137.705 420.699C137.705 416.049 136.766 412.058 134.889 408.727C133.081 405.396 130.509 402.828 127.172 401.024C123.904 399.219 120.045 398.317 115.595 398.317H96.8229V384.055H115.804C121.366 384.055 126.476 384.958 131.135 386.762C135.863 388.497 139.965 391.03 143.441 394.361C146.987 397.623 149.698 401.51 151.576 406.021C153.523 410.462 154.496 415.39 154.496 420.803C154.496 426.147 153.523 431.075 151.576 435.585C149.698 440.096 147.022 443.983 143.545 447.245C140.069 450.506 135.967 453.04 131.239 454.844C126.581 456.648 121.505 457.551 116.012 457.551H97.3444ZM86.2895 457.551V384.055H102.663V457.551H86.2895ZM159.388 457.551L188.589 384.055H203.399L232.287 457.551H214.975L192.865 396.547H198.81L176.387 457.551H159.388ZM175.97 444.226V430.901H216.122V444.226H175.97ZM253.34 430.172L224.973 384.055H243.954L265.75 421.323H253.548L275.345 384.055H293.909L265.333 430.172H253.34ZM251.358 457.551V422.677H267.732V457.551H251.358Z" fill="white"/>
<path d="M183.088 304.602C162.477 304.602 145.784 321.265 145.784 341.838C145.784 362.411 162.477 379.074 183.088 379.074C203.698 379.074 220.392 362.411 220.392 341.838C220.392 321.265 203.698 304.602 183.088 304.602ZM201.74 321.172L208.454 327.874L178.424 357.85L162.383 341.838L169.098 335.135L178.424 344.444L201.74 321.172Z" fill="white"/>
<path d="M98.3472 507.199V468.185H107.164V507.199H98.3472ZM85.9365 475.304V467.625H119.574V475.304H85.9365ZM124.498 507.199V467.625H133.314V507.199H124.498ZM149.038 507.199V467.625H157.911V507.199H149.038ZM129.776 490.663V483.04H151.958V490.663H129.776ZM165.519 507.199V467.625H174.335V507.199H165.519ZM181.971 507.199V467.625H188.148L190.788 475.528V507.199H181.971ZM209.319 507.199L185.958 477.322L188.148 467.625L211.509 497.502L209.319 507.199ZM209.319 507.199L206.961 499.296V467.625H215.777V507.199H209.319ZM242.13 507.816C239.248 507.816 236.534 507.293 233.987 506.246C231.48 505.2 229.289 503.761 227.417 501.93C225.545 500.062 224.067 497.894 222.981 495.428C221.933 492.924 221.408 490.233 221.408 487.356C221.408 484.479 221.951 481.806 223.037 479.34C224.123 476.874 225.62 474.725 227.529 472.894C229.476 471.026 231.741 469.587 234.324 468.578C236.907 467.531 239.678 467.008 242.635 467.008C246.043 467.008 249.131 467.625 251.901 468.858C254.709 470.091 257.031 471.791 258.865 473.959L252.856 479.957C251.584 478.313 250.086 477.079 248.363 476.257C246.642 475.435 244.695 475.024 242.523 475.024C240.202 475.024 238.124 475.547 236.29 476.593C234.456 477.602 233.014 479.041 231.966 480.91C230.955 482.741 230.449 484.889 230.449 487.356C230.449 489.822 230.955 491.99 231.966 493.858C232.976 495.726 234.362 497.184 236.121 498.23C237.881 499.277 239.903 499.8 242.186 499.8C244.508 499.8 246.473 499.37 248.083 498.511C249.73 497.614 250.984 496.343 251.845 494.699C252.744 493.017 253.193 490.981 253.193 488.589L259.033 492.513L241.344 492.233V484.777H262.178V486.067C262.178 490.813 261.317 494.811 259.595 498.062C257.91 501.276 255.551 503.705 252.519 505.349C249.524 506.993 246.061 507.816 242.13 507.816ZM278.659 507.816C275.402 507.816 272.594 507.293 270.236 506.246C267.915 505.163 265.781 503.537 263.834 501.37L269.562 495.708C270.835 497.165 272.239 498.305 273.774 499.127C275.346 499.912 277.162 500.304 279.221 500.304C281.093 500.304 282.534 499.968 283.545 499.296C284.593 498.623 285.117 497.688 285.117 496.493C285.117 495.409 284.78 494.531 284.106 493.858C283.432 493.186 282.534 492.607 281.411 492.121C280.325 491.634 279.108 491.168 277.761 490.719C276.451 490.271 275.141 489.766 273.83 489.206C272.52 488.607 271.303 487.879 270.18 487.02C269.094 486.123 268.214 485.02 267.54 483.712C266.866 482.367 266.529 480.685 266.529 478.667C266.529 476.239 267.11 474.145 268.27 472.389C269.469 470.633 271.116 469.306 273.212 468.409C275.309 467.475 277.724 467.008 280.456 467.008C283.227 467.008 285.754 467.494 288.037 468.465C290.359 469.437 292.268 470.764 293.765 472.445L288.037 478.107C286.84 476.874 285.623 475.958 284.387 475.36C283.189 474.762 281.823 474.463 280.288 474.463C278.753 474.463 277.536 474.762 276.638 475.36C275.739 475.921 275.29 476.743 275.29 477.827C275.29 478.836 275.627 479.658 276.301 480.293C276.974 480.891 277.855 481.414 278.94 481.863C280.063 482.311 281.28 482.759 282.59 483.208C283.938 483.656 285.267 484.179 286.577 484.777C287.888 485.376 289.086 486.141 290.171 487.076C291.294 487.972 292.193 489.131 292.867 490.551C293.541 491.934 293.878 493.652 293.878 495.708C293.878 499.482 292.53 502.453 289.834 504.621C287.139 506.751 283.414 507.816 278.659 507.816Z" fill="white"/>
<defs>
<linearGradient id="paint0_linear_30_88" x1="187.5" y1="0" x2="187.5" y2="812" gradientUnits="userSpaceOnUse">
<stop stop-color="#06D8AD"/>
<stop offset="0.796875" stop-color="#0ABBB5"/>
</linearGradient>
</defs>
</svg>
